<svg xmlns="http://www.w3.org/2000/svg" width="25.881" height="25.881" viewBox="0 0 25.881 25.881">
  <path id="Icon_awesome-info-circle" data-name="Icon awesome-info-circle" d="M13.5.563A12.94,12.94,0,1,0,26.443,13.5,12.942,12.942,0,0,0,13.5.563Zm0,5.74a2.192,2.192,0,1,1-2.192,2.192A2.192,2.192,0,0,1,13.5,6.3Zm2.922,13.253a.626.626,0,0,1-.626.626H11.207a.626.626,0,0,1-.626-.626V18.3a.626.626,0,0,1,.626-.626h.626V14.338h-.626a.626.626,0,0,1-.626-.626V12.459a.626.626,0,0,1,.626-.626h3.339a.626.626,0,0,1,.626.626v5.218H15.8a.626.626,0,0,1,.626.626Z" transform="translate(-0.563 -0.563)" fill="#869e9c"/>
</svg>
