<?xml version="1.0" encoding="utf-8"?>
<!-- Generator: Adobe Illustrator 25.2.0, SVG Export Plug-In . SVG Version: 6.00 Build 0)  -->
<svg version="1.1" id="Ebene_1" xmlns="http://www.w3.org/2000/svg" xmlns:xlink="http://www.w3.org/1999/xlink" x="0px" y="0px"
	 viewBox="0 0 235.9 140.8" style="enable-background:new 0 0 235.9 140.8;" xml:space="preserve">
<style type="text/css">
	.st0{fill:none;stroke:#879F9C;stroke-width:2;stroke-miterlimit:10;}
	.st1{fill:#445957;}
</style>
<line class="st0" x1="57.7" y1="67.7" x2="57.7" y2="34.8"/>
<line class="st0" x1="43.5" y1="67.7" x2="43.5" y2="42.9"/>
<line class="st0" x1="50.6" y1="67.7" x2="50.6" y2="38.8"/>
<line class="st0" x1="36.4" y1="67.7" x2="36.4" y2="38.8"/>
<line class="st0" x1="93.1" y1="67.7" x2="93.1" y2="32.9"/>
<line class="st0" x1="64.8" y1="67.7" x2="64.8" y2="30.4"/>
<line class="st0" x1="78.9" y1="67.7" x2="78.9" y2="30.4"/>
<line class="st0" x1="86" y1="67.7" x2="86" y2="36.5"/>
<line class="st0" x1="71.9" y1="67.7" x2="71.9" y2="24.4"/>
<line class="st0" x1="128.5" y1="67.7" x2="128.5" y2="5.5"/>
<line class="st0" x1="100.2" y1="67.7" x2="100.2" y2="25.7"/>
<line class="st0" x1="114.4" y1="67.7" x2="114.4" y2="14"/>
<line class="st0" x1="121.5" y1="67.7" x2="121.5" y2="8.9"/>
<line class="st0" x1="107.3" y1="67.7" x2="107.3" y2="17.8"/>
<line class="st0" x1="156.9" y1="67.7" x2="156.9" y2="25.7"/>
<line class="st0" x1="128.5" y1="67.7" x2="128.5" y2="0"/>
<line class="st0" x1="142.7" y1="67.7" x2="142.7" y2="19.8"/>
<line class="st0" x1="149.8" y1="67.7" x2="149.8" y2="24.4"/>
<line class="st0" x1="135.6" y1="67.7" x2="135.6" y2="8.9"/>
<line class="st0" x1="192.3" y1="67.7" x2="192.3" y2="55.3"/>
<line class="st0" x1="164" y1="67.7" x2="164" y2="31.6"/>
<line class="st0" x1="178.2" y1="67.7" x2="178.2" y2="43.8"/>
<line class="st0" x1="185.2" y1="67.7" x2="185.2" y2="51.3"/>
<line class="st0" x1="171.1" y1="67.7" x2="171.1" y2="38.8"/>
<line class="st0" x1="227.8" y1="67.7" x2="227.8" y2="61"/>
<line class="st0" x1="199.4" y1="67.7" x2="199.4" y2="49.1"/>
<line class="st0" x1="213.6" y1="67.7" x2="213.6" y2="51.3"/>
<line class="st0" x1="220.7" y1="67.7" x2="220.7" y2="56"/>
<line class="st0" x1="206.5" y1="67.7" x2="206.5" y2="54.2"/>
<line class="st0" x1="36.4" y1="67.7" x2="36.4" y2="38.8"/>
<line class="st0" x1="8.1" y1="67.7" x2="8.1" y2="57.3"/>
<line class="st0" x1="22.3" y1="67.7" x2="22.3" y2="48.2"/>
<line class="st0" x1="29.3" y1="67.7" x2="29.3" y2="44.2"/>
<line class="st0" x1="15.2" y1="67.7" x2="15.2" y2="53.3"/>
<line class="st0" x1="1" y1="67.7" x2="1" y2="61.4"/>
<g>
	<path class="st1" d="M39.1,78v4.3H21.3V140h-3.7V82.3H0V78H39.1z"/>
	<path class="st1" d="M51.8,78H64c9.7,0,14.8,6.3,14.8,16.1c0,8.2-3.8,13.5-10.2,15.2c3.3,1.8,4.9,3.7,8.1,10.1L87.1,140h-4.5
		l-9.4-19c-4.1-8.3-7-10.3-11.8-10.3h-5.9V140h-3.7C51.8,140,51.8,78,51.8,78z M61.1,106.4c8.3,0,13.9-2.5,13.9-12.3
		c0-9.1-4.9-11.8-11.9-11.8h-7.6v24.1C55.5,106.4,61.1,106.4,61.1,106.4z"/>
	<path class="st1" d="M117,77.5l21.6,62.5h-3.9l-7.1-20.6H104L97,140h-3.9l21.3-62.5H117z M105.4,115.2H126l-10.4-30.3L105.4,115.2z
		"/>
	<path class="st1" d="M187.4,81.9v5.4c-5-3.6-10.5-5.6-16.1-5.6c-12.8,0-21.2,12.3-21.2,27.5c0,15.5,8.5,27.3,21.2,27.3
		c5.8,0,11.3-2,16.3-5.9v5.5c-5.1,3.3-10.4,4.9-16.3,4.9c-15.8,0-25.1-14.9-25.1-31.5c0-18.6,10.5-32.2,25.2-32.2
		C177,77.2,182.4,78.9,187.4,81.9z"/>
	<path class="st1" d="M205.7,78v29.9L227.9,78h4.7l-22.4,30.3l25.7,31.7h-5.1l-25.1-30.9V140H202V78H205.7z"/>
</g>
<line class="st0" x1="234.8" y1="67.7" x2="234.8" y2="62.6"/>
</svg>
