<?xml version="1.0" encoding="utf-8"?>
<!-- Generator: Adobe Illustrator 25.1.0, SVG Export Plug-In . SVG Version: 6.00 Build 0)  -->
<svg version="1.1" id="Ebene_1" xmlns="http://www.w3.org/2000/svg" xmlns:xlink="http://www.w3.org/1999/xlink" x="0px" y="0px"
	 viewBox="0 0 20 30" style="enable-background:new 0 0 20 30;" xml:space="preserve">
<style type="text/css">
	.st0{fill:#443936;stroke:#937E74;stroke-miterlimit:10;}
	.st1{fill:#937E74;}
</style>
<path class="st0" d="M18.1,15.2C18.1,15.2,18.1,15.2,18.1,15.2c0.8-1.4,1.3-3,1.3-4.7c0-1.9-0.6-3.7-1.5-5.1
	c-1.7-2.6-4.6-4.2-7.8-4.2c-3.3,0-6.2,1.7-7.8,4.2c-1,1.5-1.5,3.2-1.5,5.2c0,1.7,0.5,3.4,1.3,4.8c0,0,0,0,0,0L2,15.4
	c0,0,0,0.1,0.1,0.1L10,28.3l7.9-12.8c0,0,0,0,0,0L18.1,15.2z"/>
<circle class="st1" cx="10" cy="10.4" r="1.9"/>
</svg>
